<?xml version="1.0" encoding="UTF-8"?>
<svg width="67px" height="67px" viewBox="0 0 67 67" version="1.1" xmlns="http://www.w3.org/2000/svg" xmlns:xlink="http://www.w3.org/1999/xlink">
    <!-- Generator: Sketch 64 (93537) - https://sketch.com -->
    <title>添加@2x</title>
    <desc>Created with Sketch.</desc>
    <g id="页面-1" stroke="none" stroke-width="1" fill="none" fill-rule="evenodd">
        <g id="退款" transform="translate(-113.000000, -462.000000)">
            <g id="好友端-订单详情" transform="translate(0.000000, 280.000000)">
                <g id="添加" transform="translate(113.000000, 182.000000)">
                    <rect id="矩形备份" fill="#F2F2F2" x="0" y="0" width="67" height="67" rx="4"></rect>
                    <g transform="translate(24.000000, 24.000000)" fill="#000000" fill-rule="nonzero">
                        <rect id="矩形" opacity="0" x="0" y="0" width="20" height="20"></rect>
                        <path d="M17.5917969,8.44140625 L10.7109375,8.44140625 L10.7109375,2.13476562 C10.7109375,1.74023437 10.3886719,1.41796875 9.99414062,1.41796875 C9.59960937,1.41796875 9.27734375,1.74023437 9.27734375,2.13476562 L9.27734375,8.44140625 L2.3984375,8.44140625 C2.00390625,8.44140625 1.68164062,8.76367187 1.68164062,9.15820312 C1.68164062,9.55273437 2.00390625,9.875 2.3984375,9.875 L9.27929688,9.875 L9.27929688,17.328125 C9.27929688,17.7226562 9.6015625,18.0449219 9.99609375,18.0449219 C10.390625,18.0449219 10.7128906,17.7226562 10.7128906,17.328125 L10.7128906,9.875 L17.59375,9.875 C17.9882812,9.875 18.3105469,9.55273437 18.3105469,9.15820312 C18.3085938,8.76367187 17.9863281,8.44140625 17.5917969,8.44140625 Z" id="路径" opacity="0.157482329"></path>
                    </g>
                </g>
            </g>
        </g>
    </g>
</svg>