<?xml version="1.0" encoding="UTF-8"?>
<svg width="58px" height="58px" viewBox="0 0 58 58" version="1.1" xmlns="http://www.w3.org/2000/svg" xmlns:xlink="http://www.w3.org/1999/xlink">
    <!-- Generator: Sketch 64 (93537) - https://sketch.com -->
    <title>购物车悬挂@2x</title>
    <desc>Created with Sketch.</desc>
    <g id="页面-1" stroke="none" stroke-width="1" fill="none" fill-rule="evenodd">
        <g id="首页" transform="translate(-343.000000, -740.000000)">
            <g id="购物车悬挂" transform="translate(343.000000, 740.000000)">
                <circle id="椭圆形" fill="#000000" opacity="0.137555804" cx="29" cy="29" r="29"></circle>
                <g id="Group-3" transform="translate(15.000000, 15.000000)">
                    <g id="Cart#1">
                        <rect id="bound" x="0" y="0" width="28.704" height="28.704"></rect>
                        <path d="M24.9008182,3.43337291 C25.6801924,3.43337291 26.312,4.06518054 26.312,4.84455475 C26.312,5.62392895 25.6801924,6.25573658 24.9008182,6.25573658 L23.5510624,6.25573658 L21.6995147,14.1703729 L20.8514578,19.2624439 L20.8514578,19.2624439 L20.8486713,19.2784369 C20.7396009,19.8783244 20.1648769,20.2762102 19.5649894,20.1671398 L19.5649894,20.1671398 L5.81970713,17.6679976 C5.40613708,17.592803 5.07115334,17.2892742 4.95567422,16.8850973 L4.95567422,16.8850973 L2.72399229,9.07421054 C2.69581144,8.97557756 2.68151473,8.87349826 2.68151473,8.77091842 C2.68151473,8.16119605 3.17579236,7.66691842 3.78551473,7.66691842 L3.78551473,7.66691842 L20.3235147,7.66637291 L21.0569829,4.52389244 C21.2060095,3.88520703 21.7754085,3.43337291 22.43125,3.43337291 L24.9008182,3.43337291 Z" id="Combined-Shape" fill="#EBA542"></path>
                        <path d="M7.774,21.528 C8.76479884,21.528 9.568,22.3312012 9.568,23.322 C9.568,24.3127988 8.76479884,25.116 7.774,25.116 C6.78320116,25.116 5.98,24.3127988 5.98,23.322 C5.98,22.3312012 6.78320116,21.528 7.774,21.528 Z M18.538,21.528 C19.5287988,21.528 20.332,22.3312012 20.332,23.322 C20.332,24.3127988 19.5287988,25.116 18.538,25.116 C17.5472012,25.116 16.744,24.3127988 16.744,23.322 C16.744,22.3312012 17.5472012,21.528 18.538,21.528 Z" id="Combined-Shape" fill="#EBA542" opacity="0.780608259"></path>
                    </g>
                </g>
            </g>
        </g>
    </g>
</svg>