<?xml version="1.0" encoding="UTF-8"?>
<svg width="24px" height="24px" viewBox="0 0 24 24" version="1.1" xmlns="http://www.w3.org/2000/svg" xmlns:xlink="http://www.w3.org/1999/xlink">
    <!-- Generator: Sketch 64 (93537) - https://sketch.com -->
    <title>联系客服</title>
    <desc>Created with Sketch.</desc>
    <g id="页面-1" stroke="none" stroke-width="1" fill="none" fill-rule="evenodd">
        <g id="商品详情" transform="translate(-63.000000, -936.000000)" fill="#000000" fill-rule="nonzero">
            <g id="编组-2备份-2" transform="translate(-277.000000, 717.000000)">
                <g id="联系客服" transform="translate(340.000000, 219.000000)">
                    <path d="M13.6861538,18.5723077 L9.77230769,18.5723077 C9.23191831,18.5723077 8.79384615,18.1342355 8.79384615,17.5938462 C8.79384615,17.0534568 9.23191831,16.6153846 9.77230769,16.6153846 L13.6861538,16.6153846 C17.9938462,16.6153846 21.5015385,13.3292308 21.5015385,9.28615385 C21.5015385,5.24307692 18,1.95692308 13.6861538,1.95692308 L9.77230769,1.95692308 C5.46461538,1.95692308 1.95692308,5.24307692 1.95692308,9.28615385 C1.95964846,10.6591695 2.36627584,12.0010399 3.12615385,13.1446154 C3.42276125,13.5950897 3.29889979,14.2006346 2.84923077,14.4984615 C2.63386458,14.6442472 2.36881942,14.6970514 2.11402564,14.6449345 C1.85923186,14.5928176 1.63620865,14.4401812 1.49538462,14.2215385 C0.523686809,12.7632513 0.00353799308,11.0508272 2.18628534e-15,9.29846154 C2.18628534e-15,4.16615385 4.38769231,0 9.77230769,0 L13.6861538,0 C19.0769231,0 23.4584615,4.16615385 23.4584615,9.28615385 C23.4584615,14.4061538 19.0769231,18.5723077 13.6861538,18.5723077" id="路径"></path>
                    <path d="M3.91384615,23.0584689 C3.6556898,23.0591844 3.40014199,23.006818 3.16307692,22.9046154 C2.42233074,22.6122914 1.93467484,21.8978755 1.93230399,21.1015385 C1.93205759,21.0120323 1.94448879,20.922942 1.96923077,20.8369231 L2.94153846,17.3353846 C3.01162073,17.0799506 3.18166197,16.8635256 3.41325784,16.7349899 C3.6448537,16.6064542 3.91846931,16.5766496 4.17230769,16.6523077 C4.42855049,16.7206925 4.64573905,16.8907813 4.77354918,17.1231633 C4.90135931,17.3555454 4.92869803,17.6300516 4.84923077,17.8830769 L3.96307692,21.0523077 L3.96307692,21.0523077 L9.13230769,16.8553846 C9.30644499,16.7140087 9.52340075,16.6359047 9.74769231,16.6338462 L10.7261538,16.6338462 C11.2665432,16.6338462 11.7046154,17.0719183 11.7046154,17.6123077 C11.7046154,18.1526971 11.2665432,18.5907692 10.7261538,18.5907692 L10.1107692,18.5907692 L5.24923077,22.5230769 C4.88926165,22.8662322 4.41117203,23.0579087 3.91384615,23.0584689" id="路径"></path>
                    <path d="M12.7077118,9.77230769 C12.7101848,10.1686089 12.4733771,10.5272758 12.1079555,10.680664 C11.7425339,10.8340521 11.3206748,10.7518649 11.0395593,10.4725175 C10.7584439,10.19317 10.6735968,9.77183785 10.8246764,9.40545576 C10.975756,9.03907367 11.3329217,8.8 11.7292308,8.8 C12.267226,8.8 12.7043087,9.23432308 12.7077118,9.77230769" id="路径"></path>
                    <path d="M17.5938656,9.77230769 C17.5963387,10.1686089 17.359531,10.5272758 16.9941094,10.680664 C16.6286877,10.8340521 16.2068286,10.7518649 15.9257132,10.4725175 C15.6445977,10.19317 15.5597506,9.77183785 15.7108302,9.40545576 C15.8619098,9.03907367 16.2190755,8.8 16.6153846,8.8 C17.1533799,8.8 17.5904625,9.23432308 17.5938656,9.77230769" id="路径"></path>
                    <path d="M7.82155795,9.77230769 C7.82403097,10.1686089 7.58722328,10.5272758 7.22180166,10.680664 C6.85638004,10.8340521 6.43452094,10.7518649 6.15340549,10.4725175 C5.87229005,10.19317 5.78744293,9.77183785 5.93852252,9.40545576 C6.08960212,9.03907367 6.44676785,8.8 6.84307692,8.8 C7.38107218,8.8 7.81815484,9.23432308 7.82155795,9.77230769" id="路径"></path>
                </g>
            </g>
        </g>
    </g>
</svg>