<?xml version="1.0" encoding="UTF-8"?>
<svg width="20px" height="20px" viewBox="0 0 20 20" version="1.1" xmlns="http://www.w3.org/2000/svg" xmlns:xlink="http://www.w3.org/1999/xlink">
    <!-- Generator: Sketch 64 (93537) - https://sketch.com -->
    <title>编辑</title>
    <desc>Created with Sketch.</desc>
    <g id="页面-1" stroke="none" stroke-width="1" fill="none" fill-rule="evenodd">
        <g id="没有地址备份" transform="translate(-275.000000, -337.000000)" fill="#000000">
            <g id="编组备份" transform="translate(0.000000, 239.000000)">
                <path d="M275.845547,117.999993 C275.378564,117.999993 275,117.621428 275,117.154445 L275.067644,114.321861 C275.067644,113.854878 275.446208,113.476314 275.913191,113.476314 L275.913191,113.476314 C276.380174,113.476314 276.758739,113.854878 276.758739,114.321861 L276.758739,115.336518 L279.354569,113.239561 L276.750283,111.861318 C275.927084,111.423841 275.613175,110.40269 276.048479,109.57834 L281.189407,99.8630003 C281.739674,98.7684836 282.83878,98.0570809 284.062653,98.0032758 C285.286526,97.9494707 286.443822,98.5616753 287.088016,99.60368 C287.73221,100.645685 287.762587,101.954579 287.167427,103.025348 L283.210265,110.499987 C283.068286,110.767332 282.794464,110.938624 282.491946,110.949338 C282.189428,110.960053 281.904174,110.808562 281.743636,110.551931 C281.583099,110.2953 281.571667,109.972518 281.713647,109.705172 L285.670808,102.230533 C286.107437,101.403973 285.791336,100.379957 284.964776,99.9433275 C284.138217,99.5066985 283.1142,99.8227998 282.677571,100.649359 L277.519731,110.390066 L280.124017,111.768308 C280.62498,112.034659 280.958993,112.534479 281.013427,113.09923 C281.067861,113.663981 280.835461,114.218396 280.394593,114.575525 L276.378242,117.813972 C276.227214,117.935143 276.039174,118.000808 275.845547,117.999993 L275.845547,117.999993 Z M294.303848,117.154445 C294.303848,116.687462 293.925283,116.308898 293.4583,116.308898 L280.775089,116.308898 C280.308106,116.308898 279.929541,116.687462 279.929541,117.154445 C279.929541,117.621428 280.308106,117.999993 280.775089,117.999993 L293.4583,117.999993 C293.925283,117.999993 294.303848,117.621428 294.303848,117.154445 Z" id="编辑"></path>
            </g>
        </g>
    </g>
</svg>