<?xml version="1.0" encoding="UTF-8"?>
<svg width="34px" height="34px" viewBox="0 0 34 34" version="1.1" xmlns="http://www.w3.org/2000/svg" xmlns:xlink="http://www.w3.org/1999/xlink">
    <!-- Generator: Sketch 64 (93537) - https://sketch.com -->
    <title>mdpi/删除</title>
    <desc>Created with Sketch.</desc>
    <g id="页面-1" stroke="none" stroke-width="1" fill="none" fill-rule="evenodd">
        <g id="退款" transform="translate(-56.000000, -479.000000)">
            <g id="好友端-订单详情" transform="translate(0.000000, 280.000000)">
                <g id="位图" transform="translate(38.000000, 182.000000)">
                    <g id="删除" transform="translate(18.000000, 17.000000)">
                        <circle id="椭圆形" fill-opacity="0.400759397" fill="#000000" cx="17" cy="17" r="17"></circle>
                        <g opacity="0.613978795" transform="translate(7.000000, 7.000000)" fill-rule="nonzero">
                            <rect id="矩形" fill="#000000" opacity="0" x="0" y="0" width="20" height="20"></rect>
                            <path d="M3.749625,4.827375 C3.749625,4.398625 4.0995,4.050125 4.531,4.050125 L8.438,4.050125 L8.438,3.27575 C8.438,2.846375 8.787125,2.5 9.219375,2.5 L10.782125,2.5 C11.212875,2.5 11.563625,2.84775 11.563625,3.27575 L11.563625,4.052875 L15.469125,4.052875 C15.899875,4.052875 16.2505,4.4 16.2505,4.82875 L16.2505,5.605875 L3.749625,5.605875 L3.749625,4.827375 Z M15.469125,7.153875 L15.469125,8.7055 L15.469125,16.722875 C15.469125,17.152375 15.1185,17.500125 14.68775,17.500125 L5.312375,17.500125 C4.880875,17.500125 4.531,17.152375 4.531,16.722875 L4.531,8.7055 L4.531,7.153875 L4.531,6.3795 L15.469125,6.3795 L15.469125,7.153875 Z M7.6565,8.706875 C7.6565,8.278875 7.3045,7.92975 6.873625,7.92975 C6.44425,7.92975 6.093625,8.278875 6.093625,8.706875 L6.093625,15.17275 C6.093625,15.60075 6.44425,15.9485 6.875,15.9485 C7.30725,15.9485 7.656375,15.60075 7.656375,15.17275 L7.656375,8.706875 L7.6565,8.706875 Z M10.782125,8.706875 C10.782125,8.278875 10.43025,7.92975 10.00075,7.92975 C9.5685,7.92975 9.219375,8.278875 9.219375,8.706875 L9.219375,15.17275 C9.219375,15.60075 9.569875,15.9485 10.00075,15.9485 C10.43025,15.9485 10.782125,15.60075 10.782125,15.17275 L10.782125,8.706875 Z M13.906375,8.706875 C13.906375,8.278875 13.55575,7.92975 13.124875,7.92975 C12.692625,7.92975 12.3435,8.278875 12.3435,8.706875 L12.3435,15.17275 C12.3435,15.60075 12.694125,15.9485 13.124875,15.9485 C13.55575,15.9485 13.906375,15.60075 13.906375,15.17275 L13.906375,8.706875 Z" id="形状" fill="#FFFFFF"></path>
                        </g>
                    </g>
                </g>
            </g>
        </g>
    </g>
</svg>