<?xml version="1.0" encoding="UTF-8"?>
<svg width="15px" height="20px" viewBox="0 0 15 20" version="1.1" xmlns="http://www.w3.org/2000/svg" xmlns:xlink="http://www.w3.org/1999/xlink">
    <!-- Generator: Sketch 64 (93537) - https://sketch.com -->
    <title>删除</title>
    <desc>Created with Sketch.</desc>
    <g id="页面-1" stroke="none" stroke-width="1" fill="none" fill-rule="evenodd">
        <g id="没有地址备份" transform="translate(-350.000000, -337.000000)" fill="#000000">
            <g id="编组备份" transform="translate(0.000000, 239.000000)">
                <path d="M360.158272,117.999879 L354.883304,117.999879 C353.571138,118.003411 352.47954,116.991864 352.383319,115.683226 L351.716656,106.358283 C350.783678,106.345271 350.026696,105.599313 350,104.666626 L350,103.416634 C350,102.266048 350.932734,101.333313 352.083321,101.333313 L362.916588,101.333313 C364.067175,101.333313 364.999909,102.266048 364.999909,103.416634 L364.999909,104.249962 C364.999909,105.400548 364.067175,106.333283 362.916588,106.333283 L355.833298,106.333283 C355.373063,106.333283 354.99997,105.960189 354.99997,105.499955 C354.99997,105.03972 355.373063,104.666626 355.833298,104.666626 L362.916588,104.666626 C363.146706,104.666626 363.333252,104.480079 363.333252,104.249962 L363.333252,103.416634 C363.333252,103.186517 363.146706,102.99997 362.916588,102.99997 L352.083321,102.99997 C351.853203,102.99997 351.666657,103.186517 351.666657,103.416634 L351.666657,104.666626 C352.569253,104.680457 353.314744,105.375529 353.391646,106.27495 L354.058309,115.59156 C354.088994,116.02887 354.453253,116.367631 354.891637,116.366555 L360.166605,116.366555 C360.596167,116.368708 360.956982,116.043975 360.999933,115.61656 L361.683262,108.749935 C361.729286,108.2897 362.139689,107.953916 362.599924,107.999939 C363.060158,108.045963 363.395942,108.456366 363.349919,108.9166 L362.66659,115.783226 C362.521532,117.055441 361.438669,118.01239 360.158272,117.999879 Z M360.833268,98.8333283 C360.833268,98.3730938 360.460174,98 359.999939,98 L354.99997,98 C354.539735,98 354.166641,98.3730938 354.166641,98.8333283 C354.166641,99.2935628 354.539735,99.6666566 354.99997,99.6666566 L359.999939,99.6666566 C360.460174,99.6666566 360.833268,99.2935628 360.833268,98.8333283 Z" id="删除"></path>
            </g>
        </g>
    </g>
</svg>