<?xml version="1.0" encoding="UTF-8"?>
<svg width="20px" height="20px" viewBox="0 0 20 20" version="1.1" xmlns="http://www.w3.org/2000/svg" xmlns:xlink="http://www.w3.org/1999/xlink">
    <!-- Generator: Sketch 64 (93537) - https://sketch.com -->
    <title>资源 1</title>
    <desc>Created with Sketch.</desc>
    <g id="页面-1" stroke="none" stroke-width="1" fill="none" fill-rule="evenodd">
        <g id="首页" transform="translate(-261.000000, -402.000000)" fill="#272A30" fill-rule="nonzero">
            <g id="1" transform="translate(212.000000, 110.000000)">
                <g id="资源-1" transform="translate(49.000000, 292.000000)">
                    <path d="M16.2923077,19.5487179 L3.25641026,19.5487179 C1.9094392,19.5458971 0.818205506,18.4546634 0.815384615,17.1076923 L0.815384615,9.77435897 C0.815384615,9.32403449 1.18044475,8.95897438 1.63076923,8.95897438 C2.08109371,8.95897438 2.44615384,9.32403449 2.44615385,9.77435897 L2.44615385,17.1076923 C2.4392356,17.3274663 2.52137224,17.540719 2.67392928,17.6990694 C2.82648633,17.8574197 3.03653106,17.9474439 3.25641026,17.9487179 L16.2923077,17.9487179 C16.7426322,17.9487179 17.1076923,17.5836578 17.1076923,17.1333333 C17.083383,16.8275279 17.2327709,16.5339575 17.4942934,16.373602 C17.7558159,16.2132465 18.0852098,16.2132465 18.3467323,16.373602 C18.6082548,16.5339575 18.7576427,16.8275279 18.7333333,17.1333333 C18.7333333,18.4814746 17.6404489,19.574359 16.2923077,19.574359" id="路径"></path>
                    <path d="M17.9487179,14.6615385 C17.7280569,14.6684809 17.5140117,14.5856493 17.355506,14.4319761 C17.1970003,14.2783029 17.1075831,14.0669241 17.1076923,13.8461538 L17.1076923,9.77435897 C17.083383,9.46855355 17.2327709,9.1749831 17.4942934,9.01462762 C17.7558159,8.85427214 18.0852098,8.85427214 18.3467323,9.01462762 C18.6082548,9.1749831 18.7576427,9.46855355 18.7333333,9.77435897 L18.7333333,13.8461538 C18.7336457,14.2847308 18.3869827,14.6449885 17.9487179,14.6615385" id="路径"></path>
                    <path d="M17.9487179,10.5897436 L1.63076923,10.5897436 C0.730120254,10.5897436 0,9.85962334 0,8.95897436 L0,6.51794872 C0.00282091472,5.16814544 1.09635057,4.07461579 2.44615385,4.07179487 L17.1076923,4.07179487 C18.4566627,4.07462291 19.548718,5.16897541 19.548718,6.51794872 L19.548718,8.95897436 C19.548718,9.84774276 18.8373282,10.5729744 17.9487179,10.5897436 M2.44615385,5.7025641 C1.99582936,5.7025641 1.63076923,6.06762423 1.63076923,6.51794872 L1.63076923,8.95897436 L17.9487179,8.95897436 L17.9487179,6.51794872 C17.9487179,6.30169527 17.8628116,6.094299 17.7098973,5.94138473 C17.556983,5.78847045 17.3495868,5.7025641 17.1333333,5.7025641 L2.44615385,5.7025641 Z" id="形状"></path>
                    <path d="M4.88717949,5.7025641 C3.53846154,5.7025641 2.44615385,4.42051282 2.44615385,2.85128205 C2.44615385,1.28205128 3.53846154,0 4.88717949,0 C4.95460082,0.000962946291 5.02169575,0.00956486094 5.08717949,0.0256410256 L8.34358974,0.841025641 C8.5532941,0.891837759 8.73382741,1.02469686 8.84469965,1.2098053 C8.95557189,1.39491374 8.98750367,1.61677896 8.93333333,1.82564103 C8.82477262,2.26111441 8.38470594,2.52698803 7.94871795,2.42051282 L4.81025641,1.63589744 C4.3164851,1.82610814 4.01311498,2.32540479 4.07179487,2.85128205 C4.01311498,3.37715931 4.3164851,3.87645596 4.81025641,4.06666667 L7.94871795,3.28205128 C8.37332674,3.20138727 8.78711161,3.46605092 8.8919362,3.88534928 C8.99676079,4.30464764 8.75620409,4.73289669 8.34358974,4.86153846 L5.08717949,5.67692308 C5.02072347,5.68441795 4.9536355,5.68441795 4.88717949,5.67692308" id="路径"></path>
                    <path d="M10.1846154,5.7025641 L9.36923077,5.7025641 C8.23633897,5.7025641 7.31794872,4.78417385 7.31794872,3.65128205 L7.31794872,2.85128205 C7.31794872,1.71839026 8.23633897,0.8 9.36923077,0.8 L10.1846154,0.8 C11.3175072,0.8 12.2358974,1.71839026 12.2358974,2.85128205 L12.2358974,3.66666667 C12.2358974,4.79955846 11.3175072,5.71794872 10.1846154,5.71794872 M9.36923077,2.44615385 C9.26089832,2.44478244 9.15653002,2.48685928 9.07944098,2.5629847 C9.00235194,2.63911013 8.95897436,2.74294092 8.95897436,2.85128205 L8.95897436,3.66666667 C8.95897436,3.7750078 9.00235194,3.87883859 9.07944098,3.95496402 C9.15653002,4.03108944 9.26089832,4.07316628 9.36923077,4.07179487 L10.1846154,4.07179487 C10.4083615,4.07179487 10.5897436,3.8904128 10.5897436,3.66666667 L10.5897436,2.85128205 C10.5897436,2.62753592 10.4083615,2.44615385 10.1846154,2.44615385 L9.36923077,2.44615385 Z" id="形状"></path>
                    <path d="M14.6615385,5.7025641 C14.5968177,5.71040386 14.5313874,5.71040386 14.4666667,5.7025641 L11.2051282,4.86153846 C10.7925139,4.73289669 10.5519572,4.30464764 10.6567817,3.88534928 C10.7616063,3.46605092 11.1753912,3.20138727 11.6,3.28205128 L14.7384615,4.06666667 C15.2322329,3.87645596 15.535603,3.37715931 15.4769231,2.85128205 C15.535603,2.32540479 15.2322329,1.82610814 14.7384615,1.63589744 L11.6,2.42051282 C11.1753912,2.50117683 10.7616063,2.23651318 10.6567817,1.81721482 C10.5519572,1.39791646 10.7925139,0.969667417 11.2051282,0.841025641 L14.4666667,0.0256410256 C14.5313874,0.0178012634 14.5968177,0.0178012634 14.6615385,0.0256410256 C16.0102564,0.0256410256 17.1076923,1.3025641 17.1076923,2.87692308 C17.1076923,4.45128205 16.0102564,5.72820513 14.6615385,5.72820513" id="路径"></path>
                    <path d="M11.4051282,19.5487179 L8.14358974,19.5487179 C7.69526923,19.5458983 7.33333333,19.1816627 7.33333333,18.7333333 L7.33333333,4.88717949 C7.33333333,4.43885011 7.69526923,4.07461455 8.14358974,4.07179487 L11.4051282,4.07179487 C11.8554527,4.07179487 12.2205128,4.436855 12.2205128,4.88717949 L12.2205128,18.7333333 C12.2205128,19.1836578 11.8554527,19.5487179 11.4051282,19.5487179 M8.95897436,17.9487179 L10.5897436,17.9487179 L10.5897436,5.7025641 L8.95897436,5.7025641 L8.95897436,17.9487179 Z" id="形状"></path>
                </g>
            </g>
        </g>
    </g>
</svg>