<?xml version="1.0" encoding="UTF-8"?>
<svg width="200px" height="180px" viewBox="0 0 200 180" version="1.1" xmlns="http://www.w3.org/2000/svg" xmlns:xlink="http://www.w3.org/1999/xlink">
    <!-- Generator: Sketch 64 (93537) - https://sketch.com -->
    <title>heart</title>
    <desc>Created with Sketch.</desc>
    <g id="页面-1" stroke="none" stroke-width="1" fill="none" fill-rule="evenodd">
        <g id="heart" fill-rule="nonzero" stroke="#FFFFFF" stroke-width="6">
            <path d="M141.698047,3.0671875 C126.683807,3.0671875 112.483478,9.559225 102.22776,20.6047409 C101.469097,21.4218286 100.736882,22.2585977 100.031804,23.1137262 C99.3252444,22.2601662 98.5919436,21.4233439 97.8322276,20.606241 C87.5622714,9.56052007 73.3474248,3.0671875 58.3605469,3.0671875 C43.1516197,3.0671875 29.3641739,9.49701535 19.3755204,19.8613472 C9.34960784,30.2643394 3.14667969,44.6294698 3.14667969,60.4705078 C3.14667969,61.4640764 3.24323091,62.3511997 3.33561824,63.5706573 C3.32378928,63.7843567 3.31054688,63.9978818 3.31054688,64.2234375 C3.31054687,69.7757631 4.6827307,75.8686605 7.60672898,83.0392356 C24.1830087,122.803177 85.5473342,168.112248 94.5253736,174.768795 C95.0688119,175.171714 95.4318479,175.441438 95.5960008,175.568536 C96.8501535,176.532471 98.3526521,177.010938 99.8654297,177.010938 C101.400823,177.010937 102.913882,176.506486 104.187151,175.514705 C104.340845,175.395074 104.693424,175.132237 105.227299,174.735208 C113.320039,168.716851 165.739419,129.819289 187.365315,92.7204234 C188.110826,91.5832622 188.679115,90.4779348 189.386701,89.1070407 C189.553408,88.7696495 189.753338,88.3660118 190.212483,87.5626823 C191.520024,85.0134367 192.563403,82.6459128 193.415363,80.2800085 C195.662834,74.3881328 196.792578,69.14126 196.792578,64.2378906 C196.792578,63.9490502 196.783963,63.6920533 196.765695,62.8537504 C196.831653,62.2517132 196.911914,61.4396929 196.911914,60.4705078 C196.911914,44.6366018 190.705176,30.2717282 180.677642,19.8670533 C170.687292,9.50096207 156.900011,3.0671875 141.698047,3.0671875 Z" id="路径"></path>
        </g>
    </g>
</svg>