<?xml version="1.0" encoding="UTF-8"?>
<svg width="34px" height="34px" viewBox="0 0 34 34" version="1.1" xmlns="http://www.w3.org/2000/svg" xmlns:xlink="http://www.w3.org/1999/xlink">
    <!-- Generator: Sketch 64 (93537) - https://sketch.com -->
    <title>帮助中心</title>
    <desc>Created with Sketch.</desc>
    <g id="页面-1" stroke="none" stroke-width="1" fill="none" fill-rule="evenodd">
        <g id="我的" transform="translate(-338.000000, -554.000000)">
            <g id="我的服务" transform="translate(10.000000, 490.000000)">
                <g id="编组-3备份-5" transform="translate(312.000000, 64.000000)">
                    <g id="帮助中心" transform="translate(16.000000, 0.000000)">
                        <circle id="椭圆形" fill="#5F8CF0" cx="17" cy="17" r="17"></circle>
                        <g id="用户中心-帮助中心" transform="translate(7.000000, 7.000000)" fill="#FFFFFF" fill-rule="nonzero">
                            <rect id="矩形" opacity="0" x="0" y="0" width="20" height="20"></rect>
                            <path d="M16.6726,1.499 L3.0324,1.499 C2.0747,1.499 1.299,2.2831 1.299,3.2409 L1.29089998,18.2055 C1.29089998,18.4682 1.6084,18.5998 1.7941,18.4141 L4.6879,15.5203 C4.74320409,15.4650197 4.81820506,15.4339762 4.8964,15.434 L16.6726,15.434 C17.7927,15.434 18.7091,14.5175 18.7091,13.3974 L18.7091,3.5357 C18.7091,2.4155 17.7927,1.499 16.6726,1.499 L16.6726,1.499 Z M10.8264,12.1275 C10.8264,12.2056593 10.7953513,12.2806174 10.7400844,12.3358844 C10.6848174,12.3911513 10.6098593,12.4222 10.5317,12.4222 L9.2331,12.4222 C9.15492338,12.4222265 9.07993958,12.3911896 9.02465098,12.3359197 C8.96936238,12.2806499 8.9383,12.2056766 8.9383,12.1275 L8.9383,10.9446 C8.9383,10.7817865 9.07028646,10.6498 9.2331,10.6498 L10.5316,10.6498 C10.6943745,10.6498552 10.8263,10.7818255 10.8263,10.9446 L10.8263,12.1275 L10.8264,12.1275 Z M11.5971,8.2224 C10.9102,8.706 10.5883,9.1765 10.6323,9.6346 C10.6333,9.6436 10.6339,9.6526 10.6339,9.6616 C10.6338735,9.73978582 10.6027889,9.81475882 10.5474844,9.87002579 C10.4921799,9.92529277 10.4171858,9.95630002 10.339,9.95630002 L9.3873,9.95630002 C9.30913257,9.95630002 9.23415905,9.9252864 9.17888633,9.87001367 C9.1236136,9.81474095 9.09257346,9.73976743 9.0926,9.6616 L9.0926,9.5325 C9.0667,8.7393 9.3986,8.1112 10.0872,7.6493 C10.0919,7.6461 10.0968,7.6427 10.1013,7.6392 C10.7384,7.1535 11.0443,6.6929 11.0191,6.2574 C10.9679,5.7236 10.6656,5.4291 10.1121,5.3728 C10.1003384,5.37161607 10.0885204,5.37108192 10.0767,5.3712 C9.4631,5.3782 9.0529,5.7517 8.8467,6.4917 C8.80587253,6.64060879 8.65731626,6.73300992 8.5057,6.7038 L7.308,6.4694 C7.22823635,6.45367967 7.15848668,6.40576003 7.11520164,6.33694307 C7.0719166,6.26812611 7.05892828,6.18450427 7.0793,6.1058 C7.4805,4.5402 8.5754,3.7817 10.3639,3.8298 C11.9518,3.9324 12.8249,4.6481 12.9827,5.976 C12.9837,5.9836 12.9843,5.9914 12.9847,5.999 C13.0312,6.8677 12.5687,7.6086 11.5971,8.2224 L11.5971,8.2224 Z" id="形状"></path>
                        </g>
                    </g>
                </g>
            </g>
        </g>
    </g>
</svg>