<?xml version="1.0" encoding="UTF-8"?>
<svg width="15px" height="19px" viewBox="0 0 15 19" version="1.1" xmlns="http://www.w3.org/2000/svg" xmlns:xlink="http://www.w3.org/1999/xlink">
    <!-- Generator: Sketch 64 (93537) - https://sketch.com -->
    <title>地址</title>
    <desc>Created with Sketch.</desc>
    <g id="页面-1" stroke="none" stroke-width="1" fill="none" fill-rule="evenodd">
        <g id="创建订单" transform="translate(-36.000000, -119.000000)" fill="#000000" fill-rule="nonzero">
            <g id="地址" transform="translate(31.000000, 117.000000)">
                <rect id="矩形" opacity="0" x="0" y="0" width="24" height="24"></rect>
                <path d="M12.3663276,2.90184056 C8.64246841,2.90184056 5.61245876,5.93185022 5.61245876,9.65570944 C5.61245876,13.2505361 11.6645155,19.6334965 11.921765,19.9030258 C12.0377504,20.0251989 12.1986093,20.0934087 12.3663276,20.0934087 L12.3798065,20.0934087 C12.5522736,20.0934087 12.7150272,20.0129193 12.8285662,19.8833591 L14.9241454,17.4827307 C17.7085136,14.0720751 19.1200766,11.4386366 19.1200766,9.65570944 C19.1200766,5.9318502 16.0900669,2.90184056 12.3663276,2.90184056 L12.3663276,2.90184056 Z M12.3663276,12.725628 C10.6705094,12.725628 9.29640905,11.3515277 9.29640905,9.65570944 C9.29640905,7.95989121 10.6705094,6.58579085 12.3663276,6.58579085 C14.0621459,6.58579085 15.4362462,7.95989121 15.4362462,9.65570944 C15.4362462,11.3515277 14.0621459,12.725628 12.3663276,12.725628 L12.3663276,12.725628 Z" id="形状"></path>
            </g>
        </g>
    </g>
</svg>