<?xml version="1.0" encoding="UTF-8"?>
<svg width="22px" height="21px" viewBox="0 0 22 21" version="1.1" xmlns="http://www.w3.org/2000/svg" xmlns:xlink="http://www.w3.org/1999/xlink">
    <!-- Generator: Sketch 64 (93537) - https://sketch.com -->
    <title>退款售后</title>
    <desc>Created with Sketch.</desc>
    <g id="页面-1" stroke="none" stroke-width="1" fill="none" fill-rule="evenodd">
        <g id="我的" transform="translate(-349.000000, -258.000000)">
            <g id="我的订单" transform="translate(11.000000, 191.000000)">
                <g id="已取消" transform="translate(321.000000, 63.800000)">
                    <g id="退款售后" transform="translate(14.800000, 0.000000)">
                        <rect id="Rectangle" fill="#000000" opacity="0" x="0" y="0" width="26.4" height="26.4"></rect>
                        <path d="M13.2,23.925 C12.9888,23.925 12.7776,23.84415 12.616725,23.683275 L10.141725,21.208275 C9.81915,20.8857 9.81915,20.3643 10.141725,20.041725 C10.4643,19.71915 10.9857,19.71915 11.308275,20.041725 L13.2,21.93345 L15.091725,20.041725 C15.246,19.886625 15.45555,19.8 15.675,19.8 L21.45,19.8 C21.9054,19.8 22.275,19.4304 22.275,18.975 L22.275,5.775 C22.275,5.320425 21.9054,4.95 21.45,4.95 L4.95,4.95 C4.495425,4.95 4.125,5.320425 4.125,5.775 L4.125,18.975 C4.125,19.4304 4.495425,19.8 4.95,19.8 L7.425,19.8 C7.8804,19.8 8.25,20.168775 8.25,20.625 C8.25,21.081225 7.8804,21.45 7.425,21.45 L4.95,21.45 C3.58545,21.45 2.475,20.33955 2.475,18.975 L2.475,5.775 C2.475,4.41045 3.58545,3.3 4.95,3.3 L21.45,3.3 C22.81455,3.3 23.925,4.41045 23.925,5.775 L23.925,18.975 C23.925,20.33955 22.81455,21.45 21.45,21.45 L16.01655,21.45 L13.783275,23.683275 C13.6224,23.84415 13.4112,23.925 13.2,23.925 Z M8.6625,13.2 C7.980225,13.2 7.425,12.644775 7.425,11.9625 C7.425,11.280225 7.980225,10.725 8.6625,10.725 C9.344775,10.725 9.9,11.280225 9.9,11.9625 C9.9,12.644775 9.344775,13.2 8.6625,13.2 Z M13.6125,13.2 C12.930225,13.2 12.375,12.644775 12.375,11.9625 C12.375,11.280225 12.930225,10.725 13.6125,10.725 C14.294775,10.725 14.85,11.280225 14.85,11.9625 C14.85,12.644775 14.294775,13.2 13.6125,13.2 Z M18.5625,13.2 C17.880225,13.2 17.325,12.644775 17.325,11.9625 C17.325,11.280225 17.880225,10.725 18.5625,10.725 C19.244775,10.725 19.8,11.280225 19.8,11.9625 C19.8,12.644775 19.244775,13.2 18.5625,13.2 Z" id="Shape" fill="#4C4A4A" fill-rule="nonzero"></path>
                    </g>
                </g>
            </g>
        </g>
    </g>
</svg>