<?xml version="1.0" encoding="UTF-8"?>
<svg width="14px" height="14px" viewBox="0 0 14 14" version="1.1" xmlns="http://www.w3.org/2000/svg" xmlns:xlink="http://www.w3.org/1999/xlink">
    <!-- Generator: Sketch 64 (93537) - https://sketch.com -->
    <title>Icons/Search@2x</title>
    <desc>Created with Sketch.</desc>
    <defs>
        <path d="M11.1196297,9.81420179 L13.1911755,11.8857476 C13.5516595,12.2462315 13.5516595,12.8306915 13.1911755,13.1911755 C12.8306915,13.5516595 12.2462315,13.5516595 11.8857476,13.1911755 L9.81420179,11.1196297 C8.85084396,11.8186038 7.66586287,12.2307692 6.38461538,12.2307692 C3.15587377,12.2307692 0.538461538,9.613357 0.538461538,6.38461538 C0.538461538,3.15587377 3.15587377,0.538461538 6.38461538,0.538461538 C9.613357,0.538461538 12.2307692,3.15587377 12.2307692,6.38461538 C12.2307692,7.66586287 11.8186038,8.85084396 11.1196297,9.81420179 L11.1196297,9.81420179 Z M9.27950653,9.14498884 C9.96420632,8.42713504 10.3846154,7.45497111 10.3846154,6.38461538 C10.3846154,4.17547639 8.59375438,2.38461538 6.38461538,2.38461538 C4.17547639,2.38461538 2.38461538,4.17547639 2.38461538,6.38461538 C2.38461538,8.59375438 4.17547639,10.3846154 6.38461538,10.3846154 C7.45497111,10.3846154 8.42713504,9.96420632 9.14498884,9.27950653 C9.1648368,9.25513166 9.18611536,9.23153366 9.20882451,9.20882451 C9.23153366,9.18611536 9.25513166,9.1648368 9.27950653,9.14498884 L9.27950653,9.14498884 Z" id="path-1"></path>
    </defs>
    <g id="页面-1" stroke="none" stroke-width="1" fill="none" fill-rule="evenodd">
        <g id="搜索" transform="translate(-26.000000, -125.000000)">
            <g id="Search-Bar-/-Light-/-Search">
                <g transform="translate(12.000000, 114.000000)">
                    <g id="Icons/Search" transform="translate(14.000000, 11.000000)">
                        <mask id="mask-2" fill="white">
                            <use xlink:href="#path-1"></use>
                        </mask>
                        <use id="Combined-Shape" fill="#000000" fill-rule="nonzero" xlink:href="#path-1"></use>
                    </g>
                </g>
            </g>
        </g>
    </g>
</svg>