<?xml version="1.0" encoding="UTF-8"?>
<svg width="18px" height="18px" viewBox="0 0 18 18" version="1.1" xmlns="http://www.w3.org/2000/svg" xmlns:xlink="http://www.w3.org/1999/xlink">
    <!-- Generator: Sketch 64 (93537) - https://sketch.com -->
    <title>默认选中</title>
    <desc>Created with Sketch.</desc>
    <g id="页面-1" stroke="none" stroke-width="1" fill="none" fill-rule="evenodd">
        <g id="购物车" transform="translate(-17.000000, -321.000000)" fill="#000000" fill-rule="nonzero">
            <g id="编组-4备份" transform="translate(0.000000, 258.000000)">
                <g id="默认选中" transform="translate(17.000000, 63.000000)">
                    <path d="M9,0 C4.05,0 0,4.05 0,9 C0,13.95 4.05,18 9,18 C13.95,18 18,13.95 18,9 C18,4.05 13.95,0 9,0 Z M14.55,6 L7.65,12.9 C7.5,13.05 7.2,13.2 6.9,13.2 C6.9,13.2 6.9,13.2 6.9,13.2 C6.9,13.2 6.75,13.2 6.75,13.2 C6.45,13.2 6.3,13.05 6,12.9 L3.15,10.65 C2.7,10.2 2.7,9.45 3,9 C3.45,8.55 4.05,8.4 4.65,8.85 L6.75,10.65 L12.9,4.5 C13.35,4.05 14.1,4.05 14.55,4.5 C15,4.8 15,5.55 14.55,6 Z" id="形状"></path>
                </g>
            </g>
        </g>
    </g>
</svg>