<?xml version="1.0" encoding="UTF-8"?>
<svg width="34px" height="34px" viewBox="0 0 34 34" version="1.1" xmlns="http://www.w3.org/2000/svg" xmlns:xlink="http://www.w3.org/1999/xlink">
    <!-- Generator: Sketch 64 (93537) - https://sketch.com -->
    <title>分享好友</title>
    <desc>Created with Sketch.</desc>
    <g id="页面-1" stroke="none" stroke-width="1" fill="none" fill-rule="evenodd">
        <g id="我的" transform="translate(-42.000000, -652.000000)">
            <g id="我的服务" transform="translate(10.000000, 490.000000)">
                <g id="编组-3备份-6" transform="translate(16.000000, 162.000000)">
                    <g id="分享好友" transform="translate(16.000000, 0.000000)">
                        <circle id="椭圆形" fill="#EBB75A" cx="17" cy="17" r="17"></circle>
                        <path d="M21.3403886,20.297871 C21.8084916,20.297871 22.2446198,20.3865399 22.6489101,20.5638386 C23.0531612,20.7411373 23.4042189,20.9822682 23.7021026,21.2872509 C23.9999472,21.592214 24.2375384,21.9468309 24.4148566,22.3510626 C24.5921553,22.7553137 24.6808047,23.1915006 24.6808047,23.6595644 C24.6808047,24.1276674 24.5921553,24.5638151 24.4148566,24.9680858 C24.2375579,25.372337 23.9999472,25.7233947 23.7021026,26.0212784 C23.4042189,26.3191425 23.0531417,26.5567337 22.6489101,26.734052 C22.2446589,26.9113311 21.808472,27 21.3403886,27 C20.8723248,27 20.4361575,26.9113507 20.0319063,26.734052 C19.6276356,26.5567337 19.2730187,26.3191425 18.9680751,26.0212784 C18.6630924,25.7234142 18.4219615,25.372337 18.2446824,24.9680858 C18.0673641,24.5638151 17.9786952,24.1276478 17.9786952,23.6595644 C17.9786952,23.5177411 17.9857746,23.386537 17.9999726,23.2659715 C18.0141706,23.1453865 18.035448,23.0212618 18.0638244,22.8936169 L14.7021114,20.0638391 C14.5035353,20.1631271 14.2907612,20.2340583 14.0638088,20.2765936 C13.8368758,20.3191484 13.6028243,20.3404258 13.3616739,20.3404258 C12.8935905,20.3404258 12.4574232,20.251796 12.053172,20.0744778 C11.6489208,19.8971595 11.2943039,19.6595879 10.9893603,19.3616846 C10.6843776,19.06384 10.4432467,18.7127824 10.265948,18.3085116 C10.0886493,17.9042605 10,17.4680932 10,17 C10,16.5319264 10.0886298,16.0957395 10.265948,15.6914884 C10.4432663,15.2872372 10.6843776,14.9326398 10.9893603,14.6276571 C11.2943234,14.3227135 11.6489404,14.0815631 12.053172,13.9042644 C12.4574036,13.7269657 12.89361,13.6382968 13.3616739,13.6382968 C13.8865101,13.6382968 14.3900493,13.7588818 14.8723307,14 L18.0638048,11.0212735 C18.0070716,10.8368758 17.9786757,10.6099429 17.9786757,10.3404356 C17.9786757,9.87235218 18.067325,9.43618489 18.2446628,9.03191416 C18.4219419,8.62766298 18.6630924,8.27658576 18.9680555,7.97872162 C19.2730187,7.68085747 19.6276356,7.44326628 20.0318868,7.26596759 C20.436138,7.0886689 20.8723248,7 21.3403691,7 C21.808472,7 22.2446002,7.0886689 22.6488905,7.26596759 C23.0531417,7.44326628 23.4041994,7.68085747 23.7020831,7.97872162 C23.9999276,8.27658576 24.2375188,8.62766298 24.4148371,9.03191416 C24.5921358,9.43616533 24.6808047,9.87235218 24.6808047,10.3404356 C24.6808047,10.8085385 24.5921358,11.2446863 24.4148371,11.6489374 C24.2375384,12.0532082 23.9999276,12.4078056 23.7020831,12.7127687 C23.4041994,13.0177318 23.0531221,13.2588627 22.6488905,13.4361614 C22.2446589,13.6134601 21.8084525,13.702129 21.3403691,13.702129 C21.014109,13.702129 20.7056257,13.6595742 20.4148605,13.5744646 C20.1240758,13.4893549 19.8581082,13.368809 19.6169969,13.2127682 L16.574445,16.0425656 C16.6595742,16.3688061 16.7020899,16.6879477 16.7020899,17 C16.7020899,17.3971815 16.6382577,17.7659573 16.5105932,18.1063958 L19.6382743,20.744677 C19.8935836,20.6028537 20.1631105,20.4929465 20.4467962,20.4149163 C20.7304819,20.3368861 21.0283461,20.297871 21.3403886,20.297871 L21.3403886,20.297871 Z" id="路径" fill="#FFFFFF" fill-rule="nonzero"></path>
                    </g>
                </g>
            </g>
        </g>
    </g>
</svg>