<?xml version="1.0" standalone="no"?><!DOCTYPE svg PUBLIC "-//W3C//DTD SVG 1.1//EN" "http://www.w3.org/Graphics/SVG/1.1/DTD/svg11.dtd"><svg t="1592191189271" class="icon" viewBox="0 0 1024 1024" version="1.1" xmlns="http://www.w3.org/2000/svg" p-id="2965" xmlns:xlink="http://www.w3.org/1999/xlink" width="200" height="200"><defs><style type="text/css"></style></defs><path d="M754.238 762.826c-31.226 0-59.637 12.083-81.005 31.716l-294.011-224.543c8.356-16.343 13.189-34.762 13.189-54.34 0-20.098-5.038-39.021-13.818-55.678l298.407-227.765c20.89 17.641 47.814 28.358 77.237 28.358 66.15 0 119.972-53.822 119.972-119.972 0-66.15-53.822-119.958-119.972-119.958-66.15 0-119.958 53.822-119.958 119.958 0 21.954 6.007 42.502 16.356 60.225l-297.014 226.686c-21.381-19.715-49.862-31.826-81.169-31.826-66.15 0-119.972 53.822-119.972 119.972 0 66.15 53.822 119.958 119.972 119.958 31.84 0 60.785-12.493 82.289-32.796l293.424 224.092c-8.834 16.698-13.886 35.703-13.886 55.87 0 66.15 53.822 119.972 119.972 119.972 66.15 0 119.972-53.822 119.972-119.972s-53.835-119.958-119.985-119.958zM754.238 61.344c43.705 0 79.258 35.553 79.258 79.258s-35.553 79.271-79.258 79.271c-43.705 0-79.258-35.553-79.258-79.271s35.553-79.258 79.258-79.258zM272.452 594.275c-43.349 0-78.615-35.266-78.615-78.629s35.266-78.629 78.615-78.629c43.349 0 78.615 35.266 78.615 78.629s-35.266 78.629-78.615 78.629zM754.238 961.85c-43.582 0-79.039-35.458-79.039-79.053s35.458-79.053 79.039-79.053c43.595 0 79.053 35.458 79.053 79.053 0 43.595-35.458 79.053-79.053 79.053z" p-id="2966" fill="#ffffff"></path></svg>